<svg xmlns="http://www.w3.org/2000/svg" version="1.1" xmlns:xlink="http://www.w3.org/1999/xlink" xmlns:svgjs="http://svgjs.com/svgjs" viewBox="0 0 140 140" width="140" height="140"><g transform="matrix(10,0,0,10,0,0)"><path d="M7,12.9a1.5,1.5,0,0,1-1.061-.438L.293,6.811A1,1,0,0,1,1.707,5.4l5.116,5.116a.25.25,0,0,0,.354,0L12.293,5.4a1,1,0,1,1,1.414,1.414L8.061,12.458A1.5,1.5,0,0,1,7,12.9Z" fill="#ffffff" stroke="none" stroke-linecap="round" stroke-linejoin="round" stroke-width="0"></path><path d="M13,3.1H1a1,1,0,0,1,0-2H13a1,1,0,0,1,0,2Z" fill="#ffffff" stroke="none" stroke-linecap="round" stroke-linejoin="round" stroke-width="0"></path></g></svg>